 <svg width="60" height="60" viewBox="0 0 60 60" fill="none" xmlns="http://www.w3.org/2000/svg">
                                <path d="M29.6543 19.8989C30.1982 21.1348 33.1023 23.4637 35.966 23.4637C39.2582 23.4637 41.8786 21.2679 42.8771 19.9675C43.8039 21.3643 46.6011 23.4011 50.0544 23.4011C53.5069 23.4011 57 21.2268 57 18.2111C57 17.4611 56.8454 16.9107 56.5709 16.1757L53.8689 8.00195H31.1086" stroke="#fe8639" stroke-width="2" stroke-miterlimit="10" stroke-linecap="round" stroke-linejoin="round"></path><path d="M31.1105 8H29.3523H5.12066L2.42391 16.1763C2.15 16.9113 2 17.4188 2 18.1694C2 21.185 5.50348 23.3881 8.95611 23.3881C12.4093 23.3881 15.2261 21.3741 16.1528 19.9779C17.1513 21.2783 19.8116 23.5028 23.1044 23.5028C25.9675 23.5028 29.1136 21.1309 29.6562 19.8951" stroke="#fe8639" stroke-width="2" stroke-miterlimit="10" stroke-linecap="round" stroke-linejoin="round"></path><path d="M53.5264 23.8034V47.5066C53.5264 49.5363 51.6371 51.3649 49.6069 51.3649H9.79609C7.76651 51.3649 5.75391 49.5363 5.75391 47.5066V23.0684" stroke="#fe8639" stroke-width="2" stroke-miterlimit="10" stroke-linecap="round" stroke-linejoin="round"></path><path d="M36.6211 49.5261V34.7765C36.6211 32.9999 38.1491 31.5195 39.925 31.5195H43.6926C45.4704 31.5195 46.9105 33.0006 46.9105 34.7765V49.5261" stroke="#fe8639" stroke-width="2" stroke-miterlimit="10" stroke-linecap="round" stroke-linejoin="round"></path><path d="M28.5376 43.2789C28.5376 44.0902 27.8789 44.7489 27.0675 44.7489H13.8381C13.0262 44.7489 12.3682 44.0902 12.3682 43.2789V32.9895C12.3682 32.1776 13.0262 31.5195 13.8381 31.5195H27.0682C27.8795 31.5195 28.5382 32.1776 28.5382 32.9895L28.5376 43.2789Z" stroke="#fe8639" stroke-width="2" stroke-miterlimit="10" stroke-linecap="round" stroke-linejoin="round">
                                </path>
                            </svg>