<svg width="60" height="60" viewBox="0 0 61 61" fill="none" xmlns="http://www.w3.org/2000/svg"><path d="M43.9318 24.4107C43.9318 23.6491 43.4512 22.9858 42.7429 22.691C37.9875 20.7503 34.2691 17.1635 32.2455 12.545C31.9419 11.8325 31.2337 11.3903 30.4495 11.3903C29.6654 11.3903 28.9824 11.8325 28.6536 12.545C26.6553 17.1389 22.9369 20.7257 18.2067 22.6665C17.4984 22.9613 17.0178 23.6246 17.0178 24.3861C17.0178 25.1477 17.4731 25.811 18.1814 26.1304C22.7345 28.0712 26.5288 31.8053 28.6283 36.3993C28.9318 37.0872 29.6401 37.5294 30.3989 37.5294C31.1578 37.5294 31.8661 37.0872 32.1696 36.3747C34.1426 31.9281 38.0128 28.194 42.7429 26.155C43.4765 25.8356 43.9318 25.1477 43.9318 24.4107ZM30.3989 34.4831C28.1477 30.1102 24.4799 26.5235 20.1291 24.4107C24.6316 22.298 28.2489 18.8095 30.4242 14.4366C32.6249 18.8341 36.2421 22.3471 40.7952 24.4353C36.2927 26.6463 32.5743 30.233 30.3989 34.4831Z" fill="#fe8639"></path><path d="M42.5658 43.843C42.7934 43.9167 43.097 44.015 43.4764 43.9904C44.0835 43.9659 44.64 43.7202 45.07 43.3026C45.5253 42.8603 45.7783 42.2707 45.753 41.6566C45.7024 37.775 48.2319 34.3848 52.0261 33.2302C52.2791 33.1565 52.5573 33.0336 52.7597 32.8617C53.2656 32.4932 53.5944 31.9527 53.6703 31.3877C53.7715 30.7735 53.6197 30.1593 53.2403 29.6434C50.8626 26.5234 50.8373 22.3471 53.215 19.2762L53.5186 18.9323L53.645 18.5638C53.8474 17.9742 53.7715 17.3355 53.4933 16.8196C53.1897 16.2545 52.6838 15.8369 52.102 15.6649C48.3078 14.4857 45.8035 11.1201 45.8288 7.26308C45.8288 6.96828 45.7783 6.69805 45.7024 6.45238C45.5 5.88734 45.07 5.42058 44.4882 5.12577C43.9064 4.85554 43.2993 4.83097 42.7175 5.02751C41.7816 5.34688 40.8204 5.49428 39.8339 5.49428C36.925 5.49428 34.1931 4.11854 32.5236 1.83383C32.3466 1.61273 32.1442 1.41619 31.9671 1.29336C30.9047 0.556354 29.4123 0.802022 28.6535 1.83383C26.984 4.1431 24.2521 5.49428 21.3432 5.49428C20.3567 5.49428 19.3955 5.34688 18.4848 5.02751C17.6754 4.75727 16.6383 4.95381 16.0312 5.59254C15.5759 6.03475 15.3229 6.62435 15.3482 7.23852C15.3988 11.1201 12.8693 14.4857 9.10034 15.6404C8.8221 15.7141 8.59444 15.8369 8.34149 16.0089C7.30439 16.7704 7.07673 18.2199 7.86088 19.2517C10.2386 22.3717 10.2386 26.548 7.86088 29.668C7.70911 29.8645 7.58264 30.1102 7.50675 30.3313C7.32968 30.9209 7.38028 31.5105 7.68382 32.1001C7.98736 32.6406 8.49326 33.0582 9.07505 33.2302C12.8693 34.4094 15.3735 37.7996 15.3229 41.6074C15.2976 41.9022 15.3482 42.1725 15.4494 42.4427C15.6518 43.0078 16.0818 43.4745 16.6636 43.7693C17.2454 44.0396 17.8525 44.0641 18.4342 43.8676C19.3955 43.5482 20.382 43.4008 21.3685 43.4008C24.3027 43.4008 26.9334 44.752 28.6535 47.0858C28.8052 47.2824 29.0076 47.4789 29.21 47.6263C29.6147 47.9211 30.0953 48.0685 30.5759 48.0685C30.7024 48.0685 30.8541 48.0685 30.9806 48.0439C31.613 47.9457 32.1695 47.6017 32.5236 47.1104C34.699 43.9167 38.7715 42.6147 42.5658 43.843ZM30.5 45.7101C28.3752 42.7866 24.9098 41.0424 21.242 41.0424C20.0025 41.0424 18.7631 41.2389 17.5995 41.6811C17.6754 36.7924 14.4629 32.4932 9.68213 31.0683C12.6922 27.113 12.6922 21.8066 9.65684 17.9251C14.4629 16.4756 17.6754 12.2256 17.6501 7.31222C18.7884 7.68072 20.0025 7.87725 21.2167 7.87725C24.9098 7.87725 28.3752 6.13301 30.4241 3.20957C32.5489 6.13301 36.0396 7.87725 39.7327 7.87725C40.9722 7.87725 42.2116 7.68072 43.3246 7.26308C43.274 12.1027 46.4359 16.3528 51.1914 17.8759C48.2319 21.8066 48.2319 27.0393 51.1914 30.9946C46.4106 32.4932 43.2234 36.7678 43.3246 41.6074H43.2993C38.5439 40.0352 33.3331 41.6811 30.5 45.7101Z" fill="#fe8639"></path><path d="M22.6079 46.963C22.0514 46.6191 21.2926 46.7665 20.9384 47.3069L15.0194 56.1018L11.7563 49.6162L4.97723 49.5917L11.1745 40.3791C11.554 39.8386 11.3769 39.1016 10.8204 38.7577C10.2639 38.3892 9.50506 38.5612 9.15093 39.1016L0.5 51.9501L10.2639 51.9746L14.7411 60.8678L22.9874 48.5844C23.3415 48.0439 23.1644 47.3069 22.6079 46.963Z" fill="#fe8639"></path><path d="M51.7985 39.077C51.4191 38.5366 50.6855 38.3892 50.129 38.7331C49.5725 39.1016 49.4208 39.8141 49.7749 40.3545L55.9975 49.5916L49.2184 49.6162L45.9553 56.1018L40.011 47.2824C39.6316 46.7419 38.898 46.5945 38.3415 46.9384C37.785 47.3069 37.6332 48.0194 37.9874 48.5598L46.2589 60.8678L50.7361 51.9746L60.5 51.95L51.7985 39.077Z" fill="#fe8639"></path></svg>