<svg width="66" height="60" viewBox="0 0 47 47" fill="none" xmlns="http://www.w3.org/2000/svg"><path d="M46.261 21.7866C46.9392 20.7429 47.1625 19.4767 46.8814 18.2704C46.6007 17.0644 45.8389 16.0183 44.766 15.3661C43.694 14.7108 43.103 13.5088 43.2485 12.2788C43.3973 11.0503 43.0379 9.81427 42.2506 8.84726C41.4634 7.87985 40.3139 7.26141 39.0587 7.12969C37.8026 6.99557 36.7384 6.16469 36.3245 4.99488C35.9142 3.82467 35.0434 2.86409 33.9058 2.32717C32.7682 1.79066 31.4585 1.72199 30.2692 2.13762C29.0779 2.55005 27.7506 2.25328 26.8601 1.37502C25.9724 0.495151 24.7623 0 23.4997 0C22.2371 0 21.0269 0.495151 20.1393 1.37502C19.2488 2.25368 17.921 2.55045 16.7301 2.13762C15.5405 1.72239 14.2316 1.79106 13.0939 2.32757C11.9567 2.86449 11.0855 3.82507 10.6753 4.99488C10.2622 6.16509 9.19754 6.99677 7.94149 7.1309C6.68585 7.26262 5.53635 7.88105 4.74953 8.84847C3.9623 9.81588 3.6029 11.0515 3.75125 12.2804C3.89714 13.51 3.3062 14.712 2.23457 15.3674C1.1617 16.0195 0.399878 17.0652 0.119163 18.2712C-0.161962 19.4771 0.0613805 20.7429 0.738785 21.7866C1.41455 22.8328 1.41455 24.1668 0.738785 25.2129C0.0609707 26.2571 -0.162372 27.5233 0.118343 28.7292C0.399468 29.9356 1.16129 30.9817 2.23375 31.6339C3.3062 32.2892 3.89673 33.4912 3.75125 34.7208C3.6029 35.9497 3.9623 37.1853 4.74953 38.1527C5.53635 39.1201 6.68585 39.7386 7.94149 39.8703C9.19713 40.004 10.2618 40.8353 10.6753 42.0047C11.0855 43.1749 11.9567 44.1355 13.0944 44.6724C14.232 45.2093 15.5413 45.2776 16.7309 44.8624C17.9218 44.4491 19.2496 44.7459 20.1401 45.625C21.0277 46.5048 22.2379 47 23.5005 47C24.7631 47 25.9732 46.5048 26.8609 45.625C27.7514 44.7463 29.0787 44.4496 30.27 44.8624C31.4593 45.2776 32.7686 45.2089 33.9058 44.672C35.0434 44.1355 35.9142 43.1749 36.3245 42.0047C36.738 40.8349 37.8026 40.0032 39.0587 39.8691C40.3139 39.7374 41.4634 39.1189 42.2506 38.1515C43.0379 37.1841 43.3973 35.9485 43.2485 34.7196C43.103 33.49 43.6935 32.288 44.7656 31.6326C45.8385 30.9805 46.6003 29.9344 46.8814 28.7284C47.1625 27.522 46.9392 26.2559 46.261 25.2117C45.586 24.166 45.586 22.8328 46.261 21.7866ZM45.0221 25.9856C45.4893 26.7052 45.6434 27.5779 45.4496 28.4091C45.2561 29.2404 44.7308 29.9613 43.9915 30.411C42.4359 31.362 41.5786 33.1061 41.79 34.8907C41.8925 35.7376 41.6445 36.5894 41.102 37.256C40.5594 37.9226 39.7672 38.3487 38.9021 38.4395C37.0793 38.6346 35.5348 39.8414 34.9352 41.5393C34.6525 42.3457 34.0521 43.0079 33.2682 43.3777C32.4842 43.7476 31.5818 43.795 30.7622 43.5086C29.0337 42.9091 27.1076 43.34 25.8155 44.615C25.204 45.2214 24.3701 45.5627 23.4997 45.5627C22.6297 45.5627 21.7957 45.2214 21.1839 44.615C19.8926 43.3392 17.9657 42.9083 16.2371 43.5086C15.4175 43.795 14.5151 43.7476 13.7312 43.3777C12.9472 43.0079 12.3469 42.3457 12.0645 41.5393C11.465 39.8414 9.92002 38.6346 8.09762 38.4395C7.23212 38.3487 6.43997 37.9226 5.89739 37.256C5.35481 36.5894 5.10729 35.7376 5.20974 34.8907C5.4212 33.1061 4.5643 31.3616 3.00828 30.411C2.26858 29.9613 1.74362 29.2404 1.54979 28.4091C1.35636 27.5779 1.51044 26.7052 1.97762 25.9856C2.95828 24.468 2.95828 22.532 1.97762 21.014C1.51044 20.2948 1.35636 19.4221 1.54979 18.5905C1.74362 17.7592 2.26858 17.0383 3.00828 16.589C4.56389 15.638 5.4212 13.8939 5.21015 12.1093C5.1077 11.2624 5.35522 10.4106 5.8978 9.744C6.44038 9.07697 7.23253 8.65089 8.09803 8.56013C9.92043 8.36536 11.4654 7.15821 12.0649 5.46032C12.3473 4.65394 12.9476 3.99213 13.7316 3.62187C14.5156 3.25201 15.4179 3.20503 16.2375 3.49136C17.9661 4.09052 19.8926 3.66002 21.1843 2.385C21.7961 1.77861 22.6301 1.43726 23.5001 1.43726C24.3705 1.43726 25.2045 1.77861 25.8159 2.385C27.108 3.66002 29.0341 4.09052 30.7626 3.49136C31.5822 3.20503 32.4846 3.25201 33.2686 3.62187C34.0525 3.99213 34.6529 4.65394 34.9356 5.46032C35.5352 7.15821 37.0797 8.36536 38.9025 8.56013C39.7676 8.65089 40.5598 9.07697 41.1024 9.744C41.6449 10.4106 41.8929 11.2624 41.7904 12.1093C41.5786 13.8939 42.4359 15.6384 43.9919 16.589C44.7312 17.0383 45.2565 17.7592 45.45 18.5905C45.6438 19.4221 45.4897 20.2948 45.0225 21.014C44.0415 22.532 44.0415 24.4676 45.0221 25.9856Z" fill="#fe8639"></path><path d="M38.4348 24.2908C38.4348 23.5787 38.1516 22.9152 37.6635 22.4259C38.2168 21.8205 38.4988 21.0089 38.4218 20.1642C38.2832 18.6583 36.9266 17.4782 35.3319 17.4782H28.0135C28.376 16.3776 28.9565 14.3599 28.9565 12.7391C28.9565 10.1693 26.773 8 25.4022 8C24.1724 8 23.2921 8.6931 23.2554 8.72153C23.1143 8.83411 23.0326 9.00472 23.0326 9.18477V13.2024L19.6192 20.5942L19.4782 20.6665V20.4402C19.4782 20.1132 19.2128 19.8478 18.8858 19.8478H12.9619C11.3282 19.8478 10 21.176 10 22.8098V32.2881C10 33.9219 11.3282 35.25 12.9619 35.25H16.5163C17.797 35.25 18.8918 34.4325 19.3041 33.2916C20.2899 33.7987 21.6168 34.0652 22.4402 34.0652H33.3154C34.6056 34.0652 35.7347 33.1956 36.0001 31.9966C36.1363 31.3781 36.057 30.7561 35.7868 30.2159C36.6612 29.7763 37.2501 28.8723 37.2501 27.8451C37.2501 27.4257 37.1541 27.0241 36.9728 26.6615C37.8472 26.2208 38.4348 25.318 38.4348 24.2908ZM35.9361 25.7528C35.7075 25.78 35.5143 25.9352 35.4409 26.1544C35.3686 26.3736 35.4291 26.6141 35.5973 26.7729C35.8982 27.0561 36.0653 27.4375 36.0653 27.8451C36.0653 28.5927 35.5002 29.2207 34.7526 29.3071C34.5239 29.3344 34.3308 29.4896 34.2574 29.7088C34.1851 29.928 34.2455 30.1684 34.4137 30.3272C34.8036 30.6945 34.9599 31.2099 34.8427 31.7407C34.6969 32.4018 34.0548 32.8805 33.3154 32.8805H22.4402C21.4782 32.8805 19.8645 32.4291 19.3053 31.8686C19.1359 31.7004 18.8799 31.6507 18.6596 31.7407C18.438 31.8319 18.2935 32.0487 18.2935 32.2881C18.2935 33.2679 17.4961 34.0652 16.5163 34.0652H12.9619C11.9821 34.0652 11.1848 33.2679 11.1848 32.2881V22.8098C11.1848 21.8299 11.9821 21.0326 12.9619 21.0326H18.2935V21.625C18.2935 21.83 18.4001 22.0207 18.5754 22.1297C18.7484 22.234 18.9664 22.2446 19.1512 22.1546L20.336 21.5622C20.4557 21.5029 20.5517 21.4034 20.6085 21.2814L24.1629 13.5803C24.1984 13.5021 24.2174 13.4168 24.2174 13.3315V9.50582C24.4638 9.36959 24.8916 9.18477 25.4022 9.18477C26.0515 9.18477 27.7718 10.7984 27.7718 12.7391C27.7718 14.8244 26.6368 17.8301 26.6261 17.8598C26.5574 18.041 26.5811 18.246 26.6912 18.4071C26.8026 18.5671 26.9851 18.6631 27.1794 18.6631H35.3319C36.32 18.6631 37.1588 19.3704 37.2417 20.2732C37.3045 20.9485 36.9799 21.5907 36.3982 21.9497C36.2169 22.061 36.1091 22.2625 36.1174 22.4769C36.1257 22.6913 36.2489 22.8832 36.4384 22.9816C36.9396 23.2363 37.25 23.7387 37.25 24.2908C37.2501 25.0383 36.6849 25.6663 35.9361 25.7528Z" fill="#fe8639"></path><path d="M18.8858 21.0326C18.5588 21.0326 18.2934 21.298 18.2934 21.625V32.2881C18.2934 32.6151 18.5588 32.8805 18.8858 32.8805C19.2128 32.8805 19.4782 32.6151 19.4782 32.2881V21.625C19.4782 21.298 19.2128 21.0326 18.8858 21.0326Z" fill="#fe8639"></path></svg>